<?xml version="1.0" encoding="utf-8"?>
<svg version="1.1" id="Layer_1" xmlns="http://www.w3.org/2000/svg" xmlns:xlink="http://www.w3.org/1999/xlink" x="0px" y="0px"
	 viewBox="0 0 1323.115 1705.414" enable-background="new 0 0 1323.115 1705.414" xml:space="preserve">
<g>
	<path fill="#1C1C1C" d="M541.873,677.009c-34.188-11.396-85.817-9.087-96.27-7.479c-63.364,9.748-185.413,67.885-184.413,67.531
		c-0.854,0.302-10.026,3.62-10.535,3.082c5.678,5.987,52.165-8.434,70.544-12.15c132.696-26.825,217.144-15.948,308.412,76.666
		c51.973,52.74,30.191,51.078,75.284,77.043c15.453,8.898,24.663,81.32,52.857,158.856c16.144,44.396,49.279,124.726,69.159,164.486
		l0.561,0.374c0.459,0.689,0.289,0.433,0.748,1.122l0.561,0.374c0.676,1.353,1.193,2.385,1.869,3.738l0.561-0.374
		c0.459-0.689,0.289-0.433,0.748-1.121l0.561-0.374c0-11.374,0.066-12.757-0.935-17.757
		c-51.78-258.86-70.813-331.608,41.121-581.308c82.581-184.219,104.347-256.732,87.85-343.925
		C937.289,142.809,859.849,45.21,736.257,56.445c7.724,3.862,6.115,2.123,11.215,4.673
		c110.115,55.058,165.017,117.704,135.514,250.467c-25.255,113.646-135.749,323.018-166.355,460.748
		c-1.036,4.663-11.315,47.475-10.598,47.914C643.291,781.84,627.567,705.575,541.873,677.009z"/>
	<path fill="#1C1C1C" d="M951.21,133.081c143.903,219.64,9.815,485.977-107.477,720.561c-0.093,0.186-3.814,7.629-3.738,7.477
		c-0.689,4.591-0.476,2.886-0.935,7.477c4.591-0.459,2.886-0.246,7.477-0.935c63.77-31.885,172.59-85.014,237.757-56.635
		c20.277,9.012,22.991,9.141,22.991,50.093c0,116.484-53.453,218.469-121.495,230.841c-32.801,5.964-85.58-7.186-114.732-18.752
		c-49.118-19.488,92.031,102.583,193.237,43.051c88.352-51.972,111.847-225.507,96.262-297.196
		c-12.748-58.637-62.247-73.943-115.888-87.85l-0.374-0.561l-0.561-0.374c0-31.099,87.347-316.894-10.28-512.15
		c-41.263-82.525-101.712-123.588-100.561-114.953C933.266,105.044,939.372,115.012,951.21,133.081z"/>
	<path fill="#1C1C1C" d="M606.35,936.819c0-21.988-3.122-28.03-23.149-41.64c-111.297-75.636-91.607-64.348-129.188-80.789
		c-109.039-47.705-189.614,37.176-289.72,12.15l-0.374-0.561l-0.561-0.374l-0.561,0.374c-0.459,0.689-0.289,0.433-0.748,1.121
		l-0.561,0.374c0,17.564,52.265,145.722,91.589,185.047c67.017,67.017,221.471,69.596,320.187-19.065
		C597.756,971.025,606.35,959.287,606.35,936.819z"/>
	<path fill="#1C1C1C" d="M938.5,1304.483c-13.661-2.277-23.639,5.013-34.393,14.206c-2.743,2.344-12.336,10.094-12.336,10.094
		c-0.459,0.689-0.289,0.433-0.748,1.122c-0.689,0.459-0.433,0.289-1.121,0.748c-0.459,0.689-0.289,0.433-0.748,1.122
		c-0.689,0.459-0.433,0.289-1.121,0.748c-0.459,0.689-0.289,0.433-0.748,1.121c-0.689,0.459-0.433,0.289-1.121,0.748l-0.374,0.561
		c-0.676,0-1.193,0-1.869,0l-0.374-0.561l-0.561-0.374c-4.128-24.771-17.38-53.453-24.299-67.29l-0.561-0.374
		c-0.271-0.406-0.477-0.716-0.748-1.121l-0.561-0.374c-1.189-2.379-0.68-1.359-1.869-3.738c0,33.073,5.608,47.917,5.608,100.935
		l-0.561,0.374c-0.459,0.689-0.289,0.433-0.748,1.121c-0.406,0.271-0.716,0.477-1.121,0.748c-0.271,0.406-0.477,0.716-0.748,1.121
		c-0.406,0.271-0.716,0.477-1.121,0.748l-0.374,0.561c-1.353,0.676-2.386,1.193-3.738,1.869l-0.374,0.561
		c-0.689,0.459-0.433,0.289-1.121,0.748l-0.374,0.561c-0.676,0-1.193,0-1.869,0l-0.374-0.561l-0.561-0.374
		c-0.118-0.354-43.421-101.134-48.947-115.208c-4.803-12.233-3.572-11.895-8.062-11.895
		c-4.936,101.794-27.103,147.664-27.103,147.664c-10.132-30.396-14.804-58.855-27.841-130.057
		c-4.482-24.478-6.186-50.464-11.304-49.422c-2.92,0.594-2.768,10.537-7.584,34.619c-15.518,85.349-63.212,140.591-67.29,143.365
		c-7.269,5.234-34.971-67.157-33.084-147.664c0.541-34.338,5.296-46.951-7.477-28.037c-19.634,28.896-28.744,52.526-36.075,80.934
		c-13.632,52.824-10.515,124.811-24.299,100c-17.149-30.868-18.628-58.699-17.757-94.392c1.353-55.464,8.857-78.507,0.373-68.223
		c-11.747,14.683-28.437,20.704-66.728,93.457c-30.905,58.376-19.478-78.605,22.43-172.897
		c25.798-58.042-65.45,53.755-106.542,168.224c-59.575,165.959,12.046,284.049,21.276,284.953c0,0-27.584-108.002-16.603-181.215
		c6.551-43.677,26.603-75.635,27.103-76.635l0.561,0.374c0.459,0.689,0.289,0.433,0.748,1.121l0.561,0.374
		c20.181,100.903,36.506,168.34,93.458,282.243l0.561,0.374c0.459,0.689,0.289,0.433,0.748,1.121l0.561,0.374
		c0-14.091-36.135-196.27-21.495-240.187l0.935-2.804c0.676,1.353,1.193,2.385,1.869,3.738l0.561,0.374
		c0.459,0.688,0.289,0.433,0.748,1.121l0.561,0.374c76.642,153.285,88.785,256.075,88.785,256.075c1.353,0,2.386,0,3.738,0
		c7.576-113.621-8.203,142.461,15.888-242.991c0.676-1.353,1.193-2.386,1.869-3.738c0.891,2.673,22.392,52.816,35.514,129.906
		c11.67,68.565,10.28,88.785,10.28,88.785c1.353,0,2.386,0,3.738,0c2.107-10.533,8.108-150.795,43.925-222.43
		c0.689-3.443,0.476-2.164,0.935-5.607c1.353,0,2.386,0,3.738,0c0.979,4.895,48.781,99.108,37.383,213.084
		c-1.994,19.939-1.869,20.561-1.869,20.561c1.352,0,2.383,0,3.738,0c0-0.001,57.009-228.038,57.009-228.037
		c25.735,77.206,8.196,150.974-0.561,209.346l-0.374,3.738c1.353,0,2.386,0,3.738,0c0,0,31.861-73.748,40.187-111.215
		c8.318-37.429,5.337-94.264,4.299-100.935c-2.258-12.706,37.504-26.32,52.71-25.234c13.903,0.993,22.027,6.192,20.561,35.514
		c-1.756,35.119-29.359,115.827-49.533,165.421c-29.519,72.568-29.372,67.491-27.615,70.724c3.52,6.476,12.393-12.62,14.075-15.575
		c39.625-69.624,124.116-226.861,104.194-306.55C955.583,1314.124,951.08,1306.823,938.5,1304.483z"/>
	<path fill="#1C1C1C" d="M1210.968,346.492c-1.809-5.35-4.371-12.972-8.652-14.905c-5.439-2.457,0.352,12.631,2.188,19.315
		c48.583,176.878,9.714,290.519-4.696,362.552h-3.738c-10.049-50.249,7.163-430.638-126.168-524.86
		c-20.698-14.35,13.888,34.57,31.776,91.215c41.306,130.803,22.01,282.208,4.673,409.346c-3.962,29.051,19.827,30.345,44.486,54.579
		c52.598,53.521,69.698,213.67,69.406,212.668c4.393,15.061,57.396-114.289,59.94-264.444
		C1283.255,510.675,1228.637,398.753,1210.968,346.492z"/>
	<path fill="#1C1C1C" d="M1183.36,962.053c-11.82,33.769-23.971,84.073-30.281,133.645
		c-13.395,105.248-19.615,122.419-68.224,171.028l-0.561,0.374c-0.271,0.406-0.477,0.716-0.748,1.121
		c-0.406,0.271-0.716,0.477-1.121,0.748c-0.271,0.406-0.477,0.716-0.748,1.121c-0.688,0.459-0.433,0.289-1.121,0.748
		c-0.459,0.688-0.289,0.433-0.748,1.121c-0.689,0.459-0.433,0.289-1.121,0.748c-0.459,0.689-0.289,0.433-0.748,1.121
		c-0.689,0.459-0.433,0.289-1.121,0.748c-0.459,0.689-0.289,0.433-0.748,1.121l-0.561,0.374
		c-1.401-11.209-2.006-39.121-27.103-57.944c-44.111-33.084-113.249-3.407-133.645,37.383l-0.561,0.374
		c-0.459,0.689-0.289,0.433-0.748,1.122l-0.561,0.374c-1.147,2.293-0.723,1.445-1.869,3.738l-0.561,0.374
		c-0.459,0.689-0.289,0.433-0.748,1.121c-0.689,0.459-0.433,0.288-1.121,0.748l-0.374,0.561c10.191,0,64.954-20.253,93.084,29.346
		c10.072,18.51,10.839,22.662,9.72,52.897c-1.033,27.897-14.014,70.083-25.234,92.523l-0.561,0.374l-0.374,0.561
		c6.407,0,11.996,0.544,18.692-2.804c68.688-34.334,119.376-104.228,161.122-171.589c42.133-67.159,8.378-71.989,20.561-258.318
		C1186.823,983.885,1189.979,945.504,1183.36,962.053z"/>
	<path fill="#1C1C1C" d="M78.687,904.483l0.561-0.374c0-39.953-55.229-393.37,196.262-644.86
		C429.578,105.181,563.138,96.708,644.668,69.53l-0.374-0.561c-0.689-0.459-0.433-0.289-1.121-0.748l-0.374-0.561
		c-19.494,0-60.822,5.729-59.813,5.607C171.872,122.602-40.487,521.849,74.201,904.109l0.374,1.869
		c2.296-0.459,1.443-0.246,3.738-0.935L78.687,904.483z"/>
	<path fill="#1C1C1C" d="M368.033,1241.492c0,0,1.869-0.561,1.873-0.561c8.835-1.772-15.609-15.403-27.106-19.999
		c-32.532-13.013-86.284-4.146-117.479,31.694c-1.891,2.172-3.464,5.009-5.886,6.624c-0.967-1.934-0.872-1.744-1.869-3.738
		l-0.561-0.374c-7.328-10.992-25.978-30.039-37.481-48.792c-70.376-114.735-23.641-25.731-23.641-193.825
		c0-44.193-4.335-87.175-25.234-128.972l-10.28-20.561c4.01,57.484,15.205,124.391-38.318,246.729
		c-18.662,42.657,15.421,30.062,76.687,123.701c42.921,65.6,77.249,160.239,92.066,188.654c-0.978-1.956,1.123-8.096,1.34-10.486
		c3.013-33.14,3.075-29.657,8.411-52.336c4.449-18.907,20.859-62.513,32.857-80.834
		C311.308,1251.087,335.899,1241.492,368.033,1241.492z M172.437,1239.177c0.259-0.18,0.654-0.225,1.203-0.115
		C173.225,1238.979,172.825,1239.025,172.437,1239.177z"/>
	<path fill="#1C1C1C" d="M537.063,1174.542c41.932-23.824,66.527-55.567,86.11-94.733l0.561-0.374
		c0.459-0.689,0.289-0.433,0.748-1.122l0.561-0.374c15.204,76.019,30.146,109.699,35.859,101.373
		c12.601-18.367,4.016-1.682,31.431-56.513l0.561-0.374c1.649-2.473,1.755-1.037,19.891,20.278
		c24.534,28.834,35.497,34.058,56.405,46.767c6.653,4.039,3.012-2.654-14.24-35.831c-20.529-39.479-28.488-66.431-44.86-127.103
		c-10.592-39.252-17.757-47.352-21.495-24.299c-3.738,23.053-8.723,44.86-14.953,65.421c-13.959,46.065-19.366-1.245-28.037-80.374
		l-7.477-68.224c-1.228,2.456-0.929-0.338-10.281,40.187c-17.346,75.166-56.615,144.968-94.115,212.832
		C532.234,1174.789,535.014,1175.707,537.063,1174.542z"/>
</g>
</svg>
